<svg width="277" height="394" viewBox="0 0 277 394" fill="none" xmlns="http://www.w3.org/2000/svg">
<path d="M126.235 0.525033C126.683 -0.604082 147.644 0.425492 150.821 0.639075C175.268 50.8631 149.828 242.072 143.059 297.574C147.033 297.652 151.002 297.443 154.955 297.049C175.566 244.039 204.209 163.596 201.406 106.811C201.022 102.538 202.911 42.6019 178.012 5.35142C191.154 8.72672 203.896 13.7355 215.741 20.3595C226.784 35.212 243.265 73.8836 233.757 135.651C222.579 205.668 201.967 229.243 163.978 295.585C166.431 295.019 168.856 294.348 171.249 293.566C169.375 299.505 163.565 318.065 161.065 323.74C160.943 323.775 160.698 323.845 160.576 323.881C159.183 330.222 157.781 336.565 156.402 342.909C156.788 344.31 160.545 364.713 160.59 364.962C161.314 364.974 162.145 364.883 162.728 365.416C163.354 365.913 163.501 366.927 162.941 367.534C162.373 368.096 161.521 367.912 160.802 367.97C160.614 395.026 163.508 393.06 138.568 393.255C122.511 393.52 126.242 387.722 125.849 367.899C125.096 367.916 124.215 368.2 123.56 367.704C122.648 367.051 122.934 365.347 124.068 365.127C124.759 365.044 125.455 365.096 126.148 365.09C130.706 340.226 130.315 343.722 129.992 341.961C128.671 335.955 127.456 329.926 126.092 323.932C123.834 321.899 114.447 298.691 113.524 293.174C111.051 290.4 108.474 287.717 105.971 284.972C73.586 229.128 72.8317 228.39 69.042 220.908C52.0671 190.682 19.2407 90.929 58.6777 24.6012C59.4483 23.344 65.4786 13.9306 66.5726 13.5074C77.4777 8.47996 89.09 5.10663 100.885 2.93811C94.4204 12.2089 88.8492 22.2889 83.878 39.2836C71.4253 82.6403 75.187 137.553 78.4606 156.192C85.4458 198.638 104.513 254.504 119.793 294.841C124.252 295.865 128.787 296.553 133.337 296.999C128.311 257.329 117.98 170.996 116.096 131.071C116.096 131.071 115.58 116.517 115.58 116.517C115.362 114.195 112.468 29.1884 126.235 0.525033ZM127.172 324.161C128.426 329.992 129.682 335.827 130.924 341.663C130.978 336.148 130.937 330.633 130.943 325.118C129.672 324.855 128.416 324.529 127.172 324.161ZM155.573 325.28C155.621 331.884 155.508 340.282 155.697 341.901C155.894 340.281 159.443 324.481 159.5 324.231C158.215 324.664 156.881 324.93 155.573 325.28ZM132.017 325.348C132.029 330.855 131.949 336.365 132.058 341.87C133.089 336.529 134.298 331.224 135.444 325.908C134.289 325.805 133.153 325.566 132.017 325.348ZM151.176 326.004C152.327 331.34 153.454 336.681 154.611 342.015C154.669 336.498 154.619 330.979 154.636 325.464C153.483 325.651 152.333 325.84 151.176 326.004ZM136.41 326.059C135.185 331.723 133.972 337.392 132.757 343.058C133.804 343.054 134.853 343.054 135.902 343.056C135.966 341.731 135.713 340.355 136.136 339.073C136.982 336.801 140.76 336.741 141.711 338.955C142.267 340.247 141.945 341.692 142.024 343.054C142.812 343.054 143.6 343.054 144.39 343.054C144.487 341.729 144.156 340.334 144.61 339.063C145.555 336.782 149.364 336.845 150.22 339.169C150.591 340.421 150.326 341.762 150.39 343.052C151.541 343.056 152.689 343.058 153.84 343.05C152.598 337.409 151.397 331.759 150.195 326.11C146.836 326.532 141.686 326.657 136.41 326.059ZM132.4 345.639C131.163 352.122 129.969 358.613 128.689 365.09C142.917 364.943 156.464 364.975 158.042 364.978C156.759 358.534 155.54 352.078 154.252 345.637C152.99 345.639 151.727 345.635 150.466 345.641C149.663 349.29 145.123 349.352 144.301 345.641C143.536 345.637 142.771 345.637 142.008 345.641C141.119 349.565 136.331 348.816 135.921 345.681C134.747 345.612 133.574 345.643 132.4 345.639Z" fill="#550793"/>
<path d="M20.5323 52.2434C12.809 79.9608 6.67133 113.455 23.0698 163.169C35.5529 200.618 48.301 214.388 73.3046 249.734C72.0348 248.564 47.587 222.163 44.0469 218.742C9.50595 183.562 -10.3934 131.943 7.02304 82.0273C9.50177 71.6531 14.9594 60.3141 20.5323 52.2434Z" fill="#550793"/>
<path d="M257.496 56.4811C258.707 57.8049 267.164 69.2681 272.168 84.5566C287.014 129.043 265.476 171.109 237.114 208.489C233.6 213.137 194.771 261.695 194.747 261.721C226.564 216.604 283.019 151.079 257.496 56.4811Z" fill="#550793"/>
</svg>
